<?xml version="1.0" encoding="UTF-8"?>
<svg width="183px" height="227px" viewBox="0 0 183 227" version="1.1" xmlns="http://www.w3.org/2000/svg" xmlns:xlink="http://www.w3.org/1999/xlink" style="background: #FFFFFF;">
    <!-- Generator: Sketch 49.3 (51167) - http://www.bohemiancoding.com/sketch -->
    <title>Group</title>
    <desc>Created with Sketch.</desc>
    <defs></defs>
    <g id="Page-1" stroke="none" stroke-width="1" fill="none" fill-rule="evenodd">
        <g id="Group">
            <g id="download_form">
                <path d="M25.7852326,10.9711643 L159.431952,10.922559 C165.9793,10.922559 171.303398,16.3069432 171.303398,22.9226609 L171.303398,204.198726 C171.303398,210.782041 165.9793,216.150223 159.431952,216.150223 L22.6489724,216.198828 C16.1016249,216.198828 10.7775267,210.814444 10.7775267,204.198726 L10.7775267,22.9226609 C10.7775267,16.3393467 16.1016249,10.9711643 22.6543611,10.9711643 L25.7852326,10.9711643 C108.824105,6.04323244 150.712585,3.21227397 151.450671,2.47828891 L22.6489724,0.169992556 C10.1632077,0.169992556 0,10.3770999 0,22.9226609 L0,204.198726 C0,216.77129 10.1632077,227 22.6489724,227 L159.431952,226.951395 C171.917717,226.951395 182.080925,216.744287 182.080925,204.198726 L182.080925,22.9226609 C182.080925,10.3500969 171.917717,0.121387283 159.431952,0.121387283" id="Fill-67" fill="#425563"></path>
                <path d="M147.76511,182 L73.7146584,182 C72.2107376,182 71,183.289017 71,184.890173 C71,186.485549 72.2107376,187.780347 73.7146584,187.780347 L147.76511,187.780347 C149.263602,187.780347 150.479769,186.485549 150.479769,184.890173 C150.479769,183.289017 149.263602,182 147.76511,182" id="Fill-70" fill="#005EB8"></path>
                <path d="M73.7146584,153.780347 L147.76511,153.780347 C149.263602,153.780347 150.479769,152.491329 150.479769,150.890173 C150.479769,149.294798 149.263602,148 147.76511,148 L73.7146584,148 C72.2107376,148 71,149.294798 71,150.890173 C71,152.491329 72.2107376,153.780347 73.7146584,153.780347 Z" id="Fill-74" fill="#005EB8"></path>
                <path d="M50.1351822,178.004511 L40.9275741,188.943567 L36.6796469,185.248246 C35.5103371,184.219884 33.7196551,184.349842 32.6972151,185.525112 C31.6691264,186.700383 31.7934008,188.48589 32.9683594,189.508601 L39.3854409,195.091136 C39.8994853,195.543163 40.5603995,195.786127 41.2382602,195.786127 C41.3116952,195.786127 41.3851301,195.780477 41.4529161,195.774826 C42.2098606,195.718323 42.9103167,195.362352 43.3961169,194.780367 L54.4565443,181.64898 C55.4620377,180.456758 55.3095191,178.676902 54.117614,177.665491 C52.92006,176.65408 51.1350268,176.81794 50.1351822,178.004511" id="Fill-75" fill="#005EB8"></path>
                <path d="M54.3654202,138 L33.6461405,138 C32.1854709,138 31,139.185712 31,140.646679 L31,161.364882 C31,162.831142 32.1854709,164.011561 33.6461405,164.011561 L54.3654202,164.011561 C55.831382,164.011561 57.0115607,162.831142 57.0115607,161.364882 L57.0115607,140.646679 C57.0115607,139.185712 55.831382,138 54.3654202,138 Z M36.2922809,158.718203 L51.7192798,158.718203 L51.7192798,143.293358 L36.2922809,143.293358 L36.2922809,158.718203 Z" id="Fill-76" fill="#005EB8"></path>
            </g>
            <polygon id="Rectangle" fill="#425563" points="23 0.0496513874 159.74396 2.27373675e-13 159.081226 10.7382875 24.3297549 10.8497638"></polygon>
            <path d="M36.0519943,113 C33.8071895,113 32,114.294798 32,115.890173 C32,117.485549 33.8071895,118.780347 36.0519943,118.780347 L146.582295,118.780347 C148.818996,118.780347 150.634289,117.485549 150.634289,115.890173 C150.634289,114.294798 148.818996,113 146.582295,113 L36.0519943,113 Z" id="Fill-71" fill="#005EB8"></path>
            <path d="M146.582295,103 L36.0519943,103 C33.8071895,103 32,104.294798 32,105.890173 C32,107.485549 33.8071895,108.780347 36.0519943,108.780347 L146.582295,108.780347 C148.818996,108.780347 150.634289,107.485549 150.634289,105.890173 C150.634289,104.294798 148.818996,103 146.582295,103" id="Fill-71" fill="#005EB8"></path>
            <path d="M146.582295,93 L36.0519943,93 C33.8071895,93 32,94.2947977 32,95.8901734 C32,97.4855491 33.8071895,98.7803468 36.0519943,98.7803468 L146.582295,98.7803468 C148.818996,98.7803468 150.634289,97.4855491 150.634289,95.8901734 C150.634289,94.2947977 148.818996,93 146.582295,93" id="Fill-71" fill="#005EB8"></path>
            <path d="M36.0519943,83 C33.8071895,83 32,84.2947977 32,85.8901734 C32,87.4855491 33.8071895,88.7803468 36.0519943,88.7803468 L146.582295,88.7803468 C148.818996,88.7803468 150.634289,87.4855491 150.634289,85.8901734 C150.634289,84.2947977 148.818996,83 146.582295,83 L36.0519943,83 Z" id="Fill-71" fill="#005EB8"></path>
            <path d="M36.0519943,73 C33.8071895,73 32,74.2947977 32,75.8901734 C32,77.4855491 33.8071895,78.7803468 36.0519943,78.7803468 L146.582295,78.7803468 C148.818996,78.7803468 150.634289,77.4855491 150.634289,75.8901734 C150.634289,74.2947977 148.818996,73 146.582295,73 L36.0519943,73 Z" id="Fill-71" fill="#005EB8"></path>
            <path d="M146.582295,64 L36.0519943,64 C33.8071895,64 32,65.2947977 32,66.8901734 C32,68.4855491 33.8071895,69.7803468 36.0519943,69.7803468 L146.582295,69.7803468 C148.818996,69.7803468 150.634289,68.4855491 150.634289,66.8901734 C150.634289,65.2947977 148.818996,64 146.582295,64" id="Fill-71" fill="#005EB8"></path>
            <path d="M146.582295,53 L36.0519943,53 C33.8071895,53 32,54.2947977 32,55.8901734 C32,57.4855491 33.8071895,58.7803468 36.0519943,58.7803468 L146.582295,58.7803468 C148.818996,58.7803468 150.634289,57.4855491 150.634289,55.8901734 C150.634289,54.2947977 148.818996,53 146.582295,53" id="Fill-71" fill="#005EB8"></path>
            <path d="M32.8538835,27 C32.380832,27 32,29.4303471 32,32.4248819 C32,35.4194167 32.380832,37.8497638 32.8538835,37.8497638 L56.1461165,37.8497638 C56.6174602,37.8497638 57,35.4194167 57,32.4248819 C57,29.4303471 56.6174602,27 56.1461165,27 L32.8538835,27 Z" id="Fill-71" fill="#005EB8"></path>
        </g>
    </g>
</svg>